<mxfile host="app.diagrams.net" modified="2020-12-02T11:40:00.190Z" agent="5.0 (X11)" etag="WVec7HXNahP0FiDq_R0u" version="13.10.5" type="github">
  <diagram id="C5RBs43oDa-KdzZeNtuy" name="Page-1">
    <mxGraphModel dx="2439" dy="946" grid="1" gridSize="10" guides="1" tooltips="1" connect="1" arrows="1" fold="1" page="1" pageScale="1" pageWidth="827" pageHeight="1169" math="0" shadow="0">
      <root>
        <mxCell id="WIyWlLk6GJQsqaUBKTNV-0" />
        <mxCell id="WIyWlLk6GJQsqaUBKTNV-1" parent="WIyWlLk6GJQsqaUBKTNV-0" />
        <mxCell id="WIyWlLk6GJQsqaUBKTNV-2" value="" style="rounded=0;html=1;jettySize=auto;orthogonalLoop=1;fontSize=11;endArrow=block;endFill=0;endSize=8;strokeWidth=1;shadow=0;labelBackgroundColor=none;edgeStyle=orthogonalEdgeStyle;" parent="WIyWlLk6GJQsqaUBKTNV-1" source="WIyWlLk6GJQsqaUBKTNV-3" target="WIyWlLk6GJQsqaUBKTNV-6" edge="1">
          <mxGeometry relative="1" as="geometry" />
        </mxCell>
        <mxCell id="WIyWlLk6GJQsqaUBKTNV-3" value="yibRawEthernetHandler&lt;br&gt;VUHF" style="rounded=1;whiteSpace=wrap;html=1;fontSize=12;glass=0;strokeWidth=1;shadow=0;" parent="WIyWlLk6GJQsqaUBKTNV-1" vertex="1">
          <mxGeometry x="30" y="70" width="180" height="40" as="geometry" />
        </mxCell>
        <mxCell id="jP-EISZB1VG3m62fGDjf-12" value="" style="edgeStyle=orthogonalEdgeStyle;rounded=0;orthogonalLoop=1;jettySize=auto;html=1;" edge="1" parent="WIyWlLk6GJQsqaUBKTNV-1" source="WIyWlLk6GJQsqaUBKTNV-6" target="jP-EISZB1VG3m62fGDjf-11">
          <mxGeometry relative="1" as="geometry" />
        </mxCell>
        <mxCell id="jP-EISZB1VG3m62fGDjf-24" value="" style="edgeStyle=orthogonalEdgeStyle;rounded=0;orthogonalLoop=1;jettySize=auto;html=1;" edge="1" parent="WIyWlLk6GJQsqaUBKTNV-1" source="WIyWlLk6GJQsqaUBKTNV-6" target="jP-EISZB1VG3m62fGDjf-23">
          <mxGeometry relative="1" as="geometry" />
        </mxCell>
        <mxCell id="jP-EISZB1VG3m62fGDjf-68" style="edgeStyle=orthogonalEdgeStyle;rounded=0;orthogonalLoop=1;jettySize=auto;html=1;entryX=0.5;entryY=0;entryDx=0;entryDy=0;" edge="1" parent="WIyWlLk6GJQsqaUBKTNV-1" source="WIyWlLk6GJQsqaUBKTNV-6" target="jP-EISZB1VG3m62fGDjf-67">
          <mxGeometry relative="1" as="geometry" />
        </mxCell>
        <mxCell id="WIyWlLk6GJQsqaUBKTNV-6" value="&lt;div align=&quot;justify&quot;&gt;uks_config.uks_machine_mode==YIB_DENIZ_UHF_MODE &lt;font style=&quot;font-size: 7px&quot;&gt;&lt;br&gt;&lt;/font&gt;&lt;/div&gt;" style="rhombus;whiteSpace=wrap;html=1;shadow=0;fontFamily=Helvetica;fontSize=12;align=center;strokeWidth=1;spacing=6;spacingTop=-4;" parent="WIyWlLk6GJQsqaUBKTNV-1" vertex="1">
          <mxGeometry x="-142.5" y="130" width="525" height="80" as="geometry" />
        </mxCell>
        <mxCell id="jP-EISZB1VG3m62fGDjf-5" value="PORT MANAGER-raw_eth" style="text;html=1;align=center;verticalAlign=middle;resizable=0;points=[];autosize=1;" vertex="1" parent="WIyWlLk6GJQsqaUBKTNV-1">
          <mxGeometry x="20" y="10" width="160" height="20" as="geometry" />
        </mxCell>
        <mxCell id="jP-EISZB1VG3m62fGDjf-17" value="" style="edgeStyle=orthogonalEdgeStyle;rounded=0;orthogonalLoop=1;jettySize=auto;html=1;" edge="1" parent="WIyWlLk6GJQsqaUBKTNV-1" source="jP-EISZB1VG3m62fGDjf-11" target="jP-EISZB1VG3m62fGDjf-16">
          <mxGeometry relative="1" as="geometry" />
        </mxCell>
        <mxCell id="jP-EISZB1VG3m62fGDjf-11" value="Mac Filtreleme Yap" style="whiteSpace=wrap;html=1;shadow=0;strokeWidth=1;spacing=6;spacingTop=-4;" vertex="1" parent="WIyWlLk6GJQsqaUBKTNV-1">
          <mxGeometry x="600" y="140" width="120" height="60" as="geometry" />
        </mxCell>
        <mxCell id="jP-EISZB1VG3m62fGDjf-13" value="&lt;div&gt;Yes&lt;/div&gt;&lt;div&gt;&lt;br&gt;&lt;/div&gt;" style="text;html=1;align=center;verticalAlign=middle;resizable=0;points=[];autosize=1;" vertex="1" parent="WIyWlLk6GJQsqaUBKTNV-1">
          <mxGeometry x="350" y="140" width="40" height="30" as="geometry" />
        </mxCell>
        <mxCell id="jP-EISZB1VG3m62fGDjf-21" value="" style="edgeStyle=orthogonalEdgeStyle;rounded=0;orthogonalLoop=1;jettySize=auto;html=1;" edge="1" parent="WIyWlLk6GJQsqaUBKTNV-1" source="jP-EISZB1VG3m62fGDjf-16" target="jP-EISZB1VG3m62fGDjf-20">
          <mxGeometry relative="1" as="geometry" />
        </mxCell>
        <mxCell id="jP-EISZB1VG3m62fGDjf-16" value="memcmp(&amp;amp;eh2-&amp;gt;command,&quot;CE0&quot;,3)==0" style="rhombus;whiteSpace=wrap;html=1;shadow=0;strokeWidth=1;spacing=6;spacingTop=-4;" vertex="1" parent="WIyWlLk6GJQsqaUBKTNV-1">
          <mxGeometry x="470" y="240" width="340" height="80" as="geometry" />
        </mxCell>
        <mxCell id="jP-EISZB1VG3m62fGDjf-20" value="&lt;div align=&quot;left&quot;&gt;sendRadioVersionStatusToUKB(DNZ);&amp;nbsp;&amp;nbsp; &amp;nbsp;&amp;nbsp;&amp;nbsp;&amp;nbsp; &amp;nbsp;&amp;nbsp;&amp;nbsp; &amp;nbsp;&amp;nbsp;&amp;nbsp; &amp;nbsp;&amp;nbsp;&amp;nbsp; sendRadioVersionToQt(DNZ,e_uks_main_msg_EskiVersiyonBilgisiGonder);&lt;/div&gt;" style="whiteSpace=wrap;html=1;shadow=0;strokeWidth=1;spacing=6;spacingTop=-4;align=left;" vertex="1" parent="WIyWlLk6GJQsqaUBKTNV-1">
          <mxGeometry x="435" y="370" width="410" height="40" as="geometry" />
        </mxCell>
        <mxCell id="jP-EISZB1VG3m62fGDjf-22" value="Yes" style="text;html=1;align=center;verticalAlign=middle;resizable=0;points=[];autosize=1;" vertex="1" parent="WIyWlLk6GJQsqaUBKTNV-1">
          <mxGeometry x="500" y="330" width="40" height="20" as="geometry" />
        </mxCell>
        <mxCell id="jP-EISZB1VG3m62fGDjf-34" style="edgeStyle=orthogonalEdgeStyle;rounded=0;orthogonalLoop=1;jettySize=auto;html=1;" edge="1" parent="WIyWlLk6GJQsqaUBKTNV-1" source="jP-EISZB1VG3m62fGDjf-23" target="jP-EISZB1VG3m62fGDjf-26">
          <mxGeometry relative="1" as="geometry" />
        </mxCell>
        <mxCell id="jP-EISZB1VG3m62fGDjf-40" style="edgeStyle=orthogonalEdgeStyle;rounded=0;orthogonalLoop=1;jettySize=auto;html=1;" edge="1" parent="WIyWlLk6GJQsqaUBKTNV-1" source="jP-EISZB1VG3m62fGDjf-23" target="jP-EISZB1VG3m62fGDjf-39">
          <mxGeometry relative="1" as="geometry" />
        </mxCell>
        <mxCell id="jP-EISZB1VG3m62fGDjf-46" style="edgeStyle=orthogonalEdgeStyle;rounded=0;orthogonalLoop=1;jettySize=auto;html=1;exitX=0.5;exitY=1;exitDx=0;exitDy=0;entryX=0.706;entryY=0.025;entryDx=0;entryDy=0;entryPerimeter=0;" edge="1" parent="WIyWlLk6GJQsqaUBKTNV-1" source="jP-EISZB1VG3m62fGDjf-23" target="jP-EISZB1VG3m62fGDjf-37">
          <mxGeometry relative="1" as="geometry" />
        </mxCell>
        <mxCell id="jP-EISZB1VG3m62fGDjf-72" style="edgeStyle=orthogonalEdgeStyle;rounded=0;orthogonalLoop=1;jettySize=auto;html=1;entryX=0.655;entryY=0.026;entryDx=0;entryDy=0;entryPerimeter=0;" edge="1" parent="WIyWlLk6GJQsqaUBKTNV-1" source="jP-EISZB1VG3m62fGDjf-23" target="jP-EISZB1VG3m62fGDjf-55">
          <mxGeometry relative="1" as="geometry" />
        </mxCell>
        <mxCell id="jP-EISZB1VG3m62fGDjf-23" value="memcmp(&amp;amp;eh2-&amp;gt;command,&quot;CE0&quot;,3)==0" style="rhombus;whiteSpace=wrap;html=1;shadow=0;strokeWidth=1;spacing=6;spacingTop=-4;" vertex="1" parent="WIyWlLk6GJQsqaUBKTNV-1">
          <mxGeometry x="-32.5" y="240" width="305" height="70" as="geometry" />
        </mxCell>
        <mxCell id="jP-EISZB1VG3m62fGDjf-25" value="No" style="text;html=1;align=center;verticalAlign=middle;resizable=0;points=[];autosize=1;" vertex="1" parent="WIyWlLk6GJQsqaUBKTNV-1">
          <mxGeometry x="140" y="210" width="30" height="20" as="geometry" />
        </mxCell>
        <mxCell id="jP-EISZB1VG3m62fGDjf-26" value="&lt;div style=&quot;font-size: 10px&quot; align=&quot;left&quot;&gt;Telsiz EriÅŸim Durumu Sor&lt;/div&gt;&lt;div&gt;&lt;br&gt;&lt;/div&gt;" style="whiteSpace=wrap;html=1;shadow=0;strokeWidth=1;spacing=6;spacingTop=-4;" vertex="1" parent="WIyWlLk6GJQsqaUBKTNV-1">
          <mxGeometry x="-200" y="250" width="120" height="50" as="geometry" />
        </mxCell>
        <mxCell id="jP-EISZB1VG3m62fGDjf-28" style="edgeStyle=orthogonalEdgeStyle;rounded=0;orthogonalLoop=1;jettySize=auto;html=1;exitX=0.5;exitY=1;exitDx=0;exitDy=0;" edge="1" parent="WIyWlLk6GJQsqaUBKTNV-1" source="jP-EISZB1VG3m62fGDjf-26" target="jP-EISZB1VG3m62fGDjf-26">
          <mxGeometry relative="1" as="geometry" />
        </mxCell>
        <mxCell id="jP-EISZB1VG3m62fGDjf-30" value="Yes" style="text;html=1;align=center;verticalAlign=middle;resizable=0;points=[];autosize=1;" vertex="1" parent="WIyWlLk6GJQsqaUBKTNV-1">
          <mxGeometry x="85" y="310" width="40" height="20" as="geometry" />
        </mxCell>
        <mxCell id="jP-EISZB1VG3m62fGDjf-37" value="start = clock();" style="shape=tape;whiteSpace=wrap;html=1;" vertex="1" parent="WIyWlLk6GJQsqaUBKTNV-1">
          <mxGeometry x="-200" y="365" width="110" height="45" as="geometry" />
        </mxCell>
        <mxCell id="jP-EISZB1VG3m62fGDjf-48" style="edgeStyle=orthogonalEdgeStyle;rounded=0;orthogonalLoop=1;jettySize=auto;html=1;entryX=0.477;entryY=0.217;entryDx=0;entryDy=0;entryPerimeter=0;" edge="1" parent="WIyWlLk6GJQsqaUBKTNV-1" source="jP-EISZB1VG3m62fGDjf-39" target="jP-EISZB1VG3m62fGDjf-43">
          <mxGeometry relative="1" as="geometry" />
        </mxCell>
        <mxCell id="jP-EISZB1VG3m62fGDjf-50" style="edgeStyle=orthogonalEdgeStyle;rounded=0;orthogonalLoop=1;jettySize=auto;html=1;entryX=0.5;entryY=0;entryDx=0;entryDy=0;" edge="1" parent="WIyWlLk6GJQsqaUBKTNV-1" source="jP-EISZB1VG3m62fGDjf-39" target="jP-EISZB1VG3m62fGDjf-49">
          <mxGeometry relative="1" as="geometry" />
        </mxCell>
        <mxCell id="jP-EISZB1VG3m62fGDjf-39" value="memcmp(&amp;amp;eh2-&amp;gt;command,&quot;CFF&quot;,3)==0" style="rhombus;whiteSpace=wrap;html=1;shadow=0;strokeWidth=1;spacing=6;spacingTop=-4;" vertex="1" parent="WIyWlLk6GJQsqaUBKTNV-1">
          <mxGeometry x="-50" y="365" width="340" height="50" as="geometry" />
        </mxCell>
        <mxCell id="jP-EISZB1VG3m62fGDjf-43" value="stop = clock();" style="shape=tape;whiteSpace=wrap;html=1;" vertex="1" parent="WIyWlLk6GJQsqaUBKTNV-1">
          <mxGeometry x="70" y="520" width="110" height="45" as="geometry" />
        </mxCell>
        <mxCell id="jP-EISZB1VG3m62fGDjf-49" value="&lt;div align=&quot;left&quot;&gt;sendRadioVersionStatusToUKB(OLD);&amp;nbsp;&amp;nbsp; &amp;nbsp;&amp;nbsp;&amp;nbsp;&amp;nbsp; &amp;nbsp;&amp;nbsp;&amp;nbsp; &amp;nbsp;&amp;nbsp;&amp;nbsp; &amp;nbsp;&amp;nbsp;&amp;nbsp; sendRadioVersionToQt(OLD,e_uks_main_msg_EskiVersiyonBilgisiGonder);&lt;/div&gt;" style="whiteSpace=wrap;html=1;shadow=0;strokeWidth=1;spacing=6;spacingTop=-4;align=left;" vertex="1" parent="WIyWlLk6GJQsqaUBKTNV-1">
          <mxGeometry x="-380" y="515" width="410" height="40" as="geometry" />
        </mxCell>
        <mxCell id="jP-EISZB1VG3m62fGDjf-51" value="&lt;div style=&quot;font-size: 11px&quot; align=&quot;left&quot;&gt;&lt;font style=&quot;font-size: 11px&quot;&gt;&lt;b&gt;uks_config.uks_machine_mode: &lt;/b&gt;Cihazda belirlenen telsiz tipini ifade eder&lt;/font&gt;&lt;/div&gt;&lt;div style=&quot;font-size: 11px&quot; align=&quot;left&quot;&gt;&lt;font style=&quot;font-size: 11px&quot;&gt;&lt;b&gt;YIB_DENIZ_UHF_MODE:&lt;/b&gt; YÄ°B&#39;in Deniz Tipi seÃ§ildiÄŸini ifade eder&lt;br&gt;&lt;b&gt;memcmp(&amp;amp;eh2-&amp;gt;command,&quot;XXX&quot;,3)==0&lt;/b&gt;: Telsizden Gelen MesajÄ±n XXX olduÄŸunu ifade eder.&lt;br&gt;&lt;/font&gt;&lt;font style=&quot;font-size: 11px&quot;&gt;&lt;b&gt;sendRadioVersionStatusToUKB:&lt;/b&gt; UKB&#39;ye versiyon bilgisini gÃ¶nderir. &lt;br&gt;&lt;/font&gt;&lt;b&gt;&lt;font style=&quot;font-size: 11px&quot;&gt;sendRadioVersionToQt: &lt;/font&gt;&lt;/b&gt;&lt;font style=&quot;font-size: 11px&quot;&gt;Yib&#39;e&amp;nbsp; versiyon bilgisini gÃ¶nderir. &lt;/font&gt;&lt;b&gt;&lt;font style=&quot;font-size: 11px&quot;&gt;&lt;br&gt;clock_t start, stop: &lt;/font&gt;&lt;/b&gt;&lt;font style=&quot;font-size: 11px&quot;&gt;Start ve Stop timer&#39;Ä±n baÅŸladÄ±ÄŸÄ±nÄ± veya sonlandÄ±rÄ±ldÄ±gÄ±nÄ± ifade eder.&lt;/font&gt;&lt;b&gt;&lt;font style=&quot;font-size: 11px&quot;&gt;&lt;br&gt;OLD: &lt;/font&gt;&lt;/b&gt;&lt;font style=&quot;font-size: 11px&quot;&gt;Eski Versiyon iÃ§in kullanÄ±lÄ±r&lt;/font&gt;&lt;b&gt;&lt;font style=&quot;font-size: 11px&quot;&gt;&lt;br&gt;NEW: &lt;/font&gt;&lt;/b&gt;&lt;font style=&quot;font-size: 11px&quot;&gt;Yeni Versiyon iÃ§in kullanÄ±lÄ±r.&lt;/font&gt;&lt;b&gt;&lt;font style=&quot;font-size: 11px&quot;&gt;&lt;br&gt;DNZ:&lt;/font&gt;&lt;/b&gt;&lt;font style=&quot;font-size: 11px&quot;&gt; Deniz telsizi iÃ§in kullanÄ±lÄ±r.&lt;/font&gt;&lt;b&gt;&lt;font style=&quot;font-size: 11px&quot;&gt;&lt;br&gt;NOTSET:&lt;/font&gt;&lt;/b&gt;&lt;font style=&quot;font-size: 11px&quot;&gt; Telsiz bilgisine dair bilgi tutulmak istenmediÄŸinde kullanÄ±lÄ±r. &lt;/font&gt;&lt;b&gt;&lt;font style=&quot;font-size: 11px&quot;&gt;&lt;br&gt;***duration = (-1)*(( double ) ( stop - start )*10) / CLOCKS_PER_SEC;&lt;br&gt;&lt;/font&gt;&lt;/b&gt;&lt;/div&gt;" style="text;html=1;align=left;verticalAlign=middle;resizable=0;points=[];autosize=1;" vertex="1" parent="WIyWlLk6GJQsqaUBKTNV-1">
          <mxGeometry x="-680" y="10" width="480" height="160" as="geometry" />
        </mxCell>
        <mxCell id="jP-EISZB1VG3m62fGDjf-52" value="Yes" style="text;html=1;align=center;verticalAlign=middle;resizable=0;points=[];autosize=1;" vertex="1" parent="WIyWlLk6GJQsqaUBKTNV-1">
          <mxGeometry x="-60" y="260" width="40" height="20" as="geometry" />
        </mxCell>
        <mxCell id="jP-EISZB1VG3m62fGDjf-59" value="" style="edgeStyle=orthogonalEdgeStyle;rounded=0;orthogonalLoop=1;jettySize=auto;html=1;" edge="1" parent="WIyWlLk6GJQsqaUBKTNV-1" source="jP-EISZB1VG3m62fGDjf-55" target="jP-EISZB1VG3m62fGDjf-58">
          <mxGeometry relative="1" as="geometry" />
        </mxCell>
        <mxCell id="jP-EISZB1VG3m62fGDjf-55" value="GeÃ§en SÃ¼re HesaplanÄ±r.***" style="whiteSpace=wrap;html=1;" vertex="1" parent="WIyWlLk6GJQsqaUBKTNV-1">
          <mxGeometry x="290" y="420" width="190" height="40" as="geometry" />
        </mxCell>
        <mxCell id="jP-EISZB1VG3m62fGDjf-64" value="" style="edgeStyle=orthogonalEdgeStyle;rounded=0;orthogonalLoop=1;jettySize=auto;html=1;" edge="1" parent="WIyWlLk6GJQsqaUBKTNV-1" source="jP-EISZB1VG3m62fGDjf-58" target="jP-EISZB1VG3m62fGDjf-63">
          <mxGeometry relative="1" as="geometry" />
        </mxCell>
        <mxCell id="jP-EISZB1VG3m62fGDjf-58" value="duration&gt;=11" style="rhombus;whiteSpace=wrap;html=1;" vertex="1" parent="WIyWlLk6GJQsqaUBKTNV-1">
          <mxGeometry x="182.5" y="545" width="145" height="80" as="geometry" />
        </mxCell>
        <mxCell id="jP-EISZB1VG3m62fGDjf-62" value="Yes" style="text;html=1;align=center;verticalAlign=middle;resizable=0;points=[];autosize=1;" vertex="1" parent="WIyWlLk6GJQsqaUBKTNV-1">
          <mxGeometry x="260" y="630" width="40" height="20" as="geometry" />
        </mxCell>
        <mxCell id="jP-EISZB1VG3m62fGDjf-63" value="&lt;div align=&quot;left&quot;&gt;sendRadioVersionStatusToUKB(NEW);&amp;nbsp;&amp;nbsp; &amp;nbsp;&amp;nbsp;&amp;nbsp;&amp;nbsp; &amp;nbsp;&amp;nbsp;&amp;nbsp; &amp;nbsp;&amp;nbsp;&amp;nbsp; &amp;nbsp;&amp;nbsp;&amp;nbsp; sendRadioVersionToQt(NEW,e_uks_main_msg_EskiVersiyonBilgisiGonder);&lt;/div&gt;" style="whiteSpace=wrap;html=1;shadow=0;strokeWidth=1;spacing=6;spacingTop=-4;align=left;" vertex="1" parent="WIyWlLk6GJQsqaUBKTNV-1">
          <mxGeometry x="50" y="660" width="420" height="40" as="geometry" />
        </mxCell>
        <mxCell id="jP-EISZB1VG3m62fGDjf-71" value="" style="edgeStyle=orthogonalEdgeStyle;rounded=0;orthogonalLoop=1;jettySize=auto;html=1;" edge="1" parent="WIyWlLk6GJQsqaUBKTNV-1" source="jP-EISZB1VG3m62fGDjf-67" target="jP-EISZB1VG3m62fGDjf-70">
          <mxGeometry relative="1" as="geometry" />
        </mxCell>
        <mxCell id="jP-EISZB1VG3m62fGDjf-67" value="memcmp(&amp;amp;eh2-&amp;gt;command,&quot;CFF&quot;,3)==0" style="rhombus;whiteSpace=wrap;html=1;shadow=0;strokeWidth=1;spacing=6;spacingTop=-4;" vertex="1" parent="WIyWlLk6GJQsqaUBKTNV-1">
          <mxGeometry x="-620" y="240" width="305" height="70" as="geometry" />
        </mxCell>
        <mxCell id="jP-EISZB1VG3m62fGDjf-69" value="No" style="text;html=1;align=center;verticalAlign=middle;resizable=0;points=[];autosize=1;" vertex="1" parent="WIyWlLk6GJQsqaUBKTNV-1">
          <mxGeometry x="-172.5" y="180" width="30" height="20" as="geometry" />
        </mxCell>
        <mxCell id="jP-EISZB1VG3m62fGDjf-70" value="&lt;div align=&quot;left&quot;&gt;sendRadioVersionStatusToUKB(OLD);&amp;nbsp;&amp;nbsp; &amp;nbsp;&amp;nbsp;&amp;nbsp;&amp;nbsp; &amp;nbsp;&amp;nbsp;&amp;nbsp; &amp;nbsp;&amp;nbsp;&amp;nbsp; &amp;nbsp;&amp;nbsp;&amp;nbsp; sendRadioVersionToQt(OLD,e_uks_main_msg_EskiVersiyonBilgisiGonder);&lt;/div&gt;" style="whiteSpace=wrap;html=1;shadow=0;strokeWidth=1;spacing=6;spacingTop=-4;align=left;" vertex="1" parent="WIyWlLk6GJQsqaUBKTNV-1">
          <mxGeometry x="-672.5" y="350" width="410" height="40" as="geometry" />
        </mxCell>
      </root>
    </mxGraphModel>
  </diagram>
</mxfile>
